# xmcd CD database file
#
# Track frame offsets:
#	150
#	14967
#	37403
#	61104
#	84923
#	105367
#	121794
#	139316
#	164722
#	181204
#	195289
#	213123
#	231798
#
# Disc length: 3273 seconds
#
# Revision: 1
# Processed by: cddbd v1.5.2PL0 Copyright (c) Steve Scherf et al.
# Submitted via: CDex 1.51
#
DISCID=ad0cc70d
DTITLE=The Resentments - Roselight
DYEAR=2009
DGENRE=Americana
TTITLE0=What Love Can Do
TTITLE1=Look Up
TTITLE2=Wanderin Boy
TTITLE3=Roselight
TTITLE4=Wish the Wind
TTITLE5=Riverside
TTITLE6=Struttin Yer Stuff
TTITLE7=Holdin on to Nothin
TTITLE8=Where Did the Time Go?
TTITLE9=Nice to Meet You
TTITLE10=Build Your Own Prison
TTITLE11=Getting's Good
TTITLE12=Home Again
EXTD=YEAR: 2009
EXTT0=
EXTT1=
EXTT2=
EXTT3=
EXTT4=
EXTT5=
EXTT6=
EXTT7=
EXTT8=
EXTT9=
EXTT10=
EXTT11=
EXTT12=
PLAYORDER=
